<svg xmlns="http://www.w3.org/2000/svg" version="1.1" xmlns:xlink="http://www.w3.org/1999/xlink" xmlns:svgjs="http://svgjs.dev/svgjs" width="100%" height="100%" viewBox="0 0 1000 600"><rect width="1000" height="600" x="0" y="0" fill="#5d4037"/><g><circle r="166.66666666666666" cx="343.28045145670575" cy="365.50263208067906" fill="#f6b042" transform="matrix(0.707759205305248,0,0,0.707759205305248,0,41.31214462629565)"/><path d="M376.66186485720965 359.49089521618527L376.66186485720965 375.2852496213L320.1607301164078 375.2852496213L320.1607301164078 440.5026425660986L302.11003936770527 440.5026425660986L302.11003936770527 290.5026387930618L384.4508615501429 290.5026387930618L384.4508615501429 306.29699319817655L320.1607301164078 306.29699319817655L320.1607301164078 359.49089521618527L376.66186485720965 359.49089521618527Z " fill="#533549" transform="matrix(0.707759205305248,0,0,0.707759205305248,0,41.31214462629565)"/><path d="M663.7655434379977 362.6534258342258L663.7655434379977 377.5862131449067L610.3464921583017 377.5862131449067L610.3464921583017 439.2460589874442L593.2804495175236 439.2460589874442L593.2804495175236 297.42841354960797L671.1296577281965 297.42841354960797L671.1296577281965 312.3612008602888L610.3464921583017 312.3612008602888L610.3464921583017 362.6534258342258L663.7655434379977 362.6534258342258ZM712.8011933544801 290.5026393957305L712.8011933544801 439.2460589874442L696.1734908500234 439.2460589874442L696.1734908500234 290.5026393957305L712.8011933544801 290.5026393957305ZM776.9741893119269 426.41730433110587L776.9741893119269 426.41730433110587Q788.3418101805273 426.41730433110587 795.0630256041215 419.98831566505925Q801.8134637034705 413.5885496747675 801.8134637034705 403.6820625939048L801.8134637034705 403.6820625939048L801.8134637034705 390.0058503406785L783.2862872749542 390.0058503406785Q769.8146337520113 390.0058503406785 763.0934183284171 395.2659319765348Q756.3429802290682 400.52601361239107 756.3429802290682 408.53302676919446Q756.3429802290682 416.5108172502432 761.6030618649245 421.47867212855186Q766.8631435007808 426.41730433110587 776.9741893119269 426.41730433110587ZM802.0180224337537 439.2460589874442L802.0180224337537 426.62186306138915Q793.8064505466668 440.29807531461546 772.1232251366371 440.29807531461546L772.1232251366371 440.29807531461546Q757.1904378259562 440.29807531461546 748.0437403147173 431.4728272366788Q738.8970428034784 422.6183564829874 738.8970428034784 409.14670296004437L738.8970428034784 409.14670296004437Q738.8970428034784 393.8047981887969 750.5568904296265 385.2717768684078Q762.2459607315293 376.76797822377347 782.4388296780664 376.76797822377347L782.4388296780664 376.76797822377347L801.8134637034705 376.76797822377347L801.8134637034705 371.27411518187915Q801.8134637034705 358.6499192558241 796.1150419312928 352.2501532655323Q790.4458428348698 345.8211645994857 776.9741893119269 345.8211645994857L776.9741893119269 345.8211645994857Q759.9373693469033 345.8211645994857 746.6702745542436 354.8801940834604L746.6702745542436 354.8801940834604L746.6702745542436 338.2524915790036Q758.6807942894488 330.88837728880486 778.2307643693814 330.88837728880486L778.2307643693814 330.88837728880486Q818.4119435321725 330.88837728880486 818.4119435321725 371.7124553182005L818.4119435321725 371.7124553182005L818.4119435321725 439.2460589874442L802.0180224337537 439.2460589874442ZM932.029706866668 365.8094748157396L932.029706866668 439.2460589874442L915.431227037966 439.2460589874442L915.431227037966 370.2220988547079Q915.431227037966 358.4453605255408 909.4113558324862 352.2501532655323Q903.420707302761 346.02572332976905 893.7480016279362 346.02572332976905L893.7480016279362 346.02572332976905Q881.7667045684859 346.02572332976905 873.0291245178134 355.28931154402704Q864.2915444671412 364.55289975828504 864.2915444671412 380.9760435324585L864.2915444671412 380.9760435324585L864.2915444671412 439.2460589874442L847.8684006929675 439.2460589874442L847.8684006929675 332.58329248258076L864.2915444671412 332.58329248258076L864.2915444671412 351.081246235342Q873.7596914116823 331.09293601908814 897.9560669366213 331.09293601908814L897.9560669366213 331.09293601908814Q913.5317531139069 331.09293601908814 922.7953413281648 340.5610829636294Q932.029706866668 350.02922990817075 932.029706866668 365.8094748157396L932.029706866668 365.8094748157396ZM1039.3353722381362 418.2057324440191L1039.3353722381362 433.7814186213046Q1026.944957718119 440.29807531461546 1009.0606801562078 440.29807531461546L1009.0606801562078 440.29807531461546Q984.8643046312689 440.29807531461546 970.0191853478523 425.4529560311989Q955.1740660644357 410.637059423537 955.1740660644357 386.2361251683148L955.1740660644357 386.2361251683148Q955.1740660644357 360.7539519101666 968.4411608570954 346.02572332976905Q981.7082556497553 331.2974947493714 1002.5148007871423 331.2974947493714L1002.5148007871423 331.2974947493714Q1022.503111003396 331.2974947493714 1034.3090720083178 344.15547208146455Q1046.0858103374849 356.98422673780294 1046.0858103374849 380.53770339613715L1046.0858103374849 380.53770339613715Q1046.0858103374849 387.28814149548606 1045.0337940103136 392.9573405919089L1045.0337940103136 392.9573405919089L972.240108705214 392.9573405919089Q974.1103599535184 408.7375854994778 984.2214057646643 417.1537161168478Q994.3324515758102 425.5698467342179 1010.726372674229 425.5698467342179L1010.726372674229 425.5698467342179Q1028.6106502361404 425.5698467342179 1039.3353722381362 418.2057324440191L1039.3353722381362 418.2057324440191ZM1002.5148007871423 345.8211645994857L1002.5148007871423 345.8211645994857Q990.5335037276918 345.8211645994857 982.1173731103218 354.44185394713907Q973.7012424929517 363.09176597054716 972.240108705214 379.0765696083993L972.240108705214 379.0765696083993L1029.4581078330284 379.0765696083993L1029.4581078330284 374.8685042997143Q1029.4581078330284 361.60140950705454 1022.2985522731128 353.71128705327015Q1015.1389967131975 345.8211645994857 1002.5148007871423 345.8211645994857ZM1154.2389333058409 332.58329248258076L1154.2389333058409 439.2460589874442L1137.6112308013844 439.2460589874442L1137.6112308013844 420.7188825589282Q1129.1951001840143 440.5026340448988 1104.1512670621873 440.5026340448988L1104.1512670621873 440.5026340448988Q1088.3710221546185 440.5026340448988 1079.2243246433795 431.1513778033765Q1070.0776271321406 421.7708988860995 1070.0776271321406 405.9906539785306L1070.0776271321406 405.9906539785306L1070.0776271321406 332.58329248258076L1086.6761069608428 332.58329248258076L1086.6761069608428 401.7825886698456Q1086.6761069608428 413.3547682687294 1092.5790874633035 419.4623075014737Q1098.4820679657646 425.5698467342179 1108.5638911011556 425.5698467342179L1108.5638911011556 425.5698467342179Q1121.8309858938155 425.5698467342179 1129.7211083476 416.3062585199599Q1137.6112308013844 407.0426703057019 1137.6112308013844 391.262425398133L1137.6112308013844 391.262425398133L1137.6112308013844 332.58329248258076L1154.2389333058409 332.58329248258076ZM1201.3458866225096 380.9760435324585L1201.3458866225096 439.2460589874442L1184.7474067938074 439.2460589874442L1184.9519655240906 332.58329248258076L1201.3458866225096 332.58329248258076L1201.3458866225096 351.2858049656253Q1209.7620172398797 331.5312761554095 1230.3932263227384 331.5312761554095L1230.3932263227384 331.5312761554095Q1234.1921741708566 331.5312761554095 1236.296206825199 331.9403936159761L1236.296206825199 331.9403936159761L1236.296206825199 348.3635373901496Q1231.8543601104761 346.87318092665697 1227.2371773412247 346.87318092665697L1227.2371773412247 346.87318092665697Q1216.0741152029073 346.87318092665697 1208.7100009127084 357.1887854680862Q1201.3458866225096 367.5043900095155 1201.3458866225096 380.9760435324585L1201.3458866225096 380.9760435324585Z " fill="#f6b042" transform="matrix(0.707759205305248,0,0,0.707759205305248,0,41.31214462629565)"/></g></svg>